<svg xmlns="http://www.w3.org/2000/svg" width="800" height="600" viewBox="0 0 800 600"><rect width="800" height="600" fill="#87c5bd"/><path d="M0 350Q160 240 315 340T620 305T800 330V600H0Z" fill="#3e8171"/><path d="M0 435Q190 370 380 430T800 402V600H0Z" fill="#1f5548"/><path d="M0 488Q210 430 410 480T800 455V600H0Z" fill="#173e38"/><g stroke="#152f2b" stroke-width="10" stroke-linecap="square"><path d="M160 470V330M640 470V330"/><path d="M160 340l-28-65M160 340l34-70M640 340l-27-62M640 340l38-66"/></g><g fill="#204f3c" stroke="#152f2b" stroke-width="8"><path d="M125 275h70l-35-72zM105 315h110l-55-90z"/><path d="M605 270h70l-35-72zM585 315h110l-55-90z"/></g><g stroke="#f8e6a5" stroke-width="7"><path d="M190 365Q400 290 610 365"/><path d="M190 365L610 365"/></g><g fill="#ffe8a6" stroke="#152f2b" stroke-width="6"><circle cx="160" cy="315" r="24"/><circle cx="640" cy="315" r="24"/></g><g fill="#204f3c" stroke="#152f2b" stroke-width="6"><path d="M132 343h56v83h-56z"/><path d="M612 343h56v83h-56z"/></g><g fill="#c36f2d" stroke="#152f2b" stroke-width="5"><path d="M157 423h-18v63h18zM175 423h18v63h-18z"/><path d="M637 423h-18v63h18zM655 423h18v63h-18z"/></g><path d="M194 365L586 365" stroke="#fff3b0" stroke-width="4"/><path d="M405 350l75 20" stroke="#5c3922" stroke-width="7"/><text x="400" y="565" text-anchor="middle" fill="#fff3b0" font-family="monospace" font-weight="900" font-size="42">GREENWOOD DUEL</text></svg>
